<svg xmlns="http://www.w3.org/2000/svg" viewBox="0 0 294 46"><defs><style>.cls-1{fill:#2b4d9c;}</style></defs><title>Fichier 1</title><g id="Calque_2" data-name="Calque 2"><g id="Calque_1-2" data-name="Calque 1"><polygon class="cls-1" points="0 0 0 45.84 36.73 23 36.73 22.99 36.8 22.99 36.76 22.97 36.73 22.96 36.73 22.95 36.73 22.92 36.73 22.94 0 0"/><polygon class="cls-1" points="36.87 0.15 73.54 23.03 36.87 45.99 73.6 45.99 73.6 45.99 73.7 46 110.33 23.07 110.2 23.07 110.2 22.92 110.2 22.92 73.59 0.15 36.87 0.15"/><polygon class="cls-1" points="183.73 22.96 183.79 22.99 183.79 22.92 183.73 22.96"/><path class="cls-1" d="M110.33,0l.23.15Zm36.61,0V.15H110.33l36.54,22.77L110.33,46h36.61v-.15L183.79,23l-.06,0Z"/><path class="cls-1" d="M257.5.15h-.24l36.55,22.77L257.26,46h36.61V23l.13-.08-.13-.08V.15ZM257.26,0l.24.15Z"/><polygon class="cls-1" points="183.8 0.15 220.47 23.03 183.8 45.99 220.54 45.99 220.54 45.99 220.64 46 257.26 23.07 257.14 23.07 257.14 22.92 257.14 22.92 220.53 0.15 183.8 0.15"/></g></g></svg>