<svg xmlns="http://www.w3.org/2000/svg" viewBox="0 0 1278.5 100"><defs><style>.cls-1{fill:#2b4d9c;}</style></defs><title>Fichier 2</title><g id="Calque_2" data-name="Calque 2"><g id="Calque_1-2" data-name="Calque 1"><polygon class="cls-1" points="759.11 0 739.13 25 739.14 25 739.13 25 719.16 50 719.16 50 699.18 75 699.18 75 699.18 75.01 699.18 75 679.21 100 699.18 100 719.15 100 739.13 75 739.13 75 739.13 74.99 745.79 66.67 759.11 50 759.11 50 759.11 49.99 759.11 49.99 779.08 25 779.08 25 779.09 25 799.06 0 759.11 0"/><polygon class="cls-1" points="779.09 75 779.09 75 779.08 75 772.43 83.33 759.11 100 779.08 100 799.06 100 799.06 75 799.06 50 779.09 75"/><polygon class="cls-1" points="679.21 0 665.89 16.67 659.23 25 659.23 25 639.25 50 639.25 75 639.25 100 659.23 75 679.2 50 679.2 50 679.21 50 679.21 50 692.52 33.34 699.18 25 699.18 25 699.18 25 699.19 25 719.16 0 679.21 0"/><polygon class="cls-1" points="938.9 0 918.92 0 898.95 25 898.95 25 898.95 25 878.97 50 878.97 50 859 75 859 75 859 75.01 858.99 75 839.02 100 859 100 878.96 100 898.94 75 898.94 75 898.94 75 905.6 66.67 918.92 50 918.92 50 918.92 49.99 918.92 50 938.9 25 938.9 25 938.9 25 958.88 0 938.9 0"/><polygon class="cls-1" points="938.9 75 938.9 75 938.9 75 932.24 83.33 918.92 100 938.9 100 958.87 100 958.87 75 958.87 50 938.9 75"/><polygon class="cls-1" points="859 0 839.02 0 825.7 16.67 819.04 25 819.04 25 799.06 50 799.06 75 799.06 100 819.04 75 839.01 50 839.01 50 839.02 50 839.02 50 852.34 33.34 858.99 25 858.99 25 859 25 859 25 878.98 0 859 0"/><polygon class="cls-1" points="1078.73 0 1058.76 25 1058.76 25 1058.76 25 1038.78 50 1038.78 50 1018.81 75 1018.81 75 1018.81 75.01 1018.8 75 998.83 100 1018.81 100 1038.77 100 1058.75 75 1058.75 75 1058.76 74.99 1065.41 66.67 1078.73 50 1078.73 50 1078.73 49.99 1078.73 49.99 1098.71 25 1098.71 25 1098.71 25 1118.69 0 1078.73 0"/><polygon class="cls-1" points="1098.71 75 1098.71 75 1098.71 75 1092.05 83.33 1078.73 100 1098.71 100 1118.69 100 1118.69 75 1118.69 50 1098.71 75"/><polygon class="cls-1" points="998.83 0 985.51 16.67 978.85 25 978.85 25 958.88 50 958.88 75 958.88 100 978.85 75 998.83 50 998.83 50 998.83 50 998.83 50 1012.15 33.34 1018.81 25 1018.8 25 1018.81 25 1018.81 25 1038.79 0 998.83 0"/><polygon class="cls-1" points="1258.52 0 1238.55 0 1218.57 25 1218.58 25 1218.57 25 1198.6 50 1198.59 50 1178.62 75 1178.62 75 1178.62 75.01 1178.62 75 1158.64 100 1178.62 100 1198.59 100 1218.57 75 1218.57 75 1218.57 75 1225.23 66.67 1238.55 50 1238.55 50 1238.55 49.99 1238.55 50 1258.52 25 1258.52 25 1258.52 25 1278.5 0 1258.52 0"/><polygon class="cls-1" points="1258.52 75 1258.53 75 1258.52 75 1251.86 83.33 1238.55 100 1258.52 100 1278.5 100 1278.5 50 1258.52 75"/><polygon class="cls-1" points="1178.62 0 1158.64 0 1145.33 16.67 1138.67 25 1138.66 25 1118.69 50 1118.69 75 1118.69 100 1138.67 75 1158.64 50 1158.64 50 1158.64 50 1158.64 50 1171.96 33.34 1178.62 25 1178.62 25 1178.62 25 1178.63 25 1198.6 0 1178.62 0"/><polygon class="cls-1" points="119.86 0 99.89 25 99.89 25 99.88 25 79.91 50 79.91 50 59.94 75 59.94 75 59.94 75.01 59.93 75 39.96 100 59.94 100 79.9 100 99.88 75 99.88 75 99.88 74.99 106.54 66.67 119.86 50 119.86 50 119.86 49.99 119.86 49.99 139.83 25 139.83 25 139.84 25 159.81 0 119.86 0"/><polygon class="cls-1" points="139.84 75 139.84 75 139.83 75 133.18 83.33 119.86 100 139.83 100 159.81 100 159.81 75 159.81 50 139.84 75"/><polygon class="cls-1" points="39.96 0 26.64 16.67 19.98 25 19.98 25 0 50 0 75 0 100 19.98 75 39.95 50 39.95 50 39.96 50 39.96 50 53.27 33.34 59.93 25 59.93 25 59.94 25 59.94 25 79.91 0 39.96 0"/><polygon class="cls-1" points="299.65 0 279.67 0 259.7 25 259.7 25 259.69 25 239.72 50 239.72 50 219.75 75 219.75 75 219.75 75.01 219.74 75 199.77 100 219.75 100 239.71 100 259.69 75 259.69 75 259.69 75 266.35 66.67 279.67 50 279.67 50 279.67 49.99 279.67 50 299.65 25 299.65 25 299.65 25 319.63 0 299.65 0"/><polygon class="cls-1" points="299.65 75 299.65 75 299.64 75 292.99 83.33 279.67 100 299.64 100 319.62 100 319.62 75 319.62 50 299.65 75"/><polygon class="cls-1" points="219.75 0 199.77 0 186.45 16.67 179.79 25 179.79 25 159.81 50 159.81 75 159.81 100 179.79 75 199.77 50 199.76 50 199.77 50 199.77 50 213.09 33.34 219.74 25 219.74 25 219.75 25 219.75 25 239.73 0 219.75 0"/><polygon class="cls-1" points="439.48 0 419.51 25 419.51 25 419.51 25 399.53 50 399.53 50 379.56 75 379.56 75 379.56 75.01 379.55 75 359.58 100 379.56 100 399.52 100 419.5 75 419.5 75 419.5 74.99 426.16 66.67 439.48 50 439.48 50 439.48 49.99 439.48 49.99 459.46 25 459.46 25 459.46 25 479.44 0 439.48 0"/><polygon class="cls-1" points="459.46 75 459.46 75 459.46 75 452.8 83.33 439.48 100 459.46 100 479.44 100 479.44 75 479.44 50 459.46 75"/><polygon class="cls-1" points="359.58 0 346.26 16.67 339.6 25 339.6 25 319.63 50 319.63 75 319.63 100 339.6 75 359.58 50 359.58 50 359.58 50 359.58 50 372.9 33.34 379.56 25 379.55 25 379.56 25 379.56 25 399.54 0 359.58 0"/><polygon class="cls-1" points="619.27 0 599.29 0 579.32 25 579.33 25 579.32 25 559.35 50 559.35 50 539.37 75 539.37 75 539.37 75.01 539.37 75 519.39 100 539.37 100 559.34 100 579.31 75 579.32 75 579.32 75 585.98 66.67 599.29 50 599.29 50 599.29 49.99 599.3 50 619.27 25 619.27 25 619.27 25 639.25 0 619.27 0"/><polygon class="cls-1" points="619.27 75 619.28 75 619.27 75 612.61 83.33 599.29 100 619.27 100 639.25 100 639.25 75 639.25 50 619.27 75"/><polygon class="cls-1" points="539.37 0 519.39 0 506.08 16.67 499.42 25 499.41 25 479.44 50 479.44 75 479.44 100 499.42 75 519.39 50 519.39 50 519.39 50 519.39 50 532.71 33.34 539.37 25 539.37 25 539.37 25 539.37 25 559.35 0 539.37 0"/></g></g></svg>