<svg xmlns="http://www.w3.org/2000/svg" viewBox="0 0 144 72" width="100%" height="100%" preserveAspectRatio="none">

            <polygon class="cls-1" points="24 60 36 54 36 54 48 48 54 45 72 36 72 36 72 36 72 36 72 18 71.99 0 54 18 54 18 54 18 54 18 54 18 48 24 36 35.99 36 36 36 36 36 36 18 54 18 54 18 54 18 54 18 54 0 72 18 63 24 60" />
            <polygon class="cls-1" points="72.01 72 90 54.01 90 54 90 54 90 54 90 54 96 48 108 36.01 108 36 108 36 126 18 126 18 126 18 126 18 126 18 144 0 126 9 120 12 108 18 108 18 96 24 90 27 72 36 72 36 72 54 72.01 72" />

</svg>
