<svg xmlns="http://www.w3.org/2000/svg" viewBox="0 0 143.99 72"><defs><style>.cls-1{fill:#ffe800;}</style></defs><title>Fichier 1</title><g id="Calque_2" data-name="Calque 2"><g id="Calque_1-2" data-name="Calque 1"><polygon class="cls-1" points="71.99 36 72 54 72 72 89.99 72 107.99 72 125.99 72 143.99 72 125.99 54 125.99 54 107.99 36 107.99 36.01 107.99 36 95.99 24 89.99 18 89.99 18 89.99 18 71.99 0 71.99 18 71.99 36"/><polygon class="cls-1" points="54 54 54 54 54 54 54 54 48 48 36 36 35.99 36 36 36 18 18 18 18 0 0 0 18 0 36 0 54 0 72 18 72 36 72 54 72 72 72 54 54 54 54"/></g></g></svg>