<svg xmlns="http://www.w3.org/2000/svg" viewBox="0 0 144 72">
    <polygon class="cls-1" points="48.01 24 36.01 35.99 36.01 36 48.01 48 54.01 54 72.01 36 54.01 18 54.01 18 54 18 48.01 24" />
    <polygon class="cls-1" points="126 18 144 0 126 9 120 12 108.01 18 108 18 96 24 90 27 72.01 36 90 45 96.01 48 108 54 108 54 120 60 126 63 144 72 126 54 126 54 108 36 108 36.01 108 36 108.01 36 126 18 126 18 126 18 126 18 126 18" />
    <polygon class="cls-2" points="24.01 12 18.01 18 18.01 18 36.01 36 36.01 35.99 48.01 24 54 18 54.01 18 36.01 0 24.01 12" />
    <polygon class="cls-2" points="18.01 54 18.01 54 18.01 54 24.01 60 36.01 72 54.01 54 54.01 54 54.01 54 48.01 48 36.01 36 36.01 36 36.01 36 18.01 54" />
    <polygon class="cls-1" points="0.01 36 18.01 54 18.01 54 36.01 36 36.01 36 18.01 18 18.01 18 0.01 36" />
    <polygon class="cls-3" points="36.01 0 72.01 36 144 0 36.01 0" />
    <polygon class="cls-3" points="144 72 108 36.01 144 0 144 72" />
    <polygon class="cls-3" points="36.01 72 72.01 36 144 72 36.01 72" />
    <polygon class="cls-4" points="0 0 36.01 0 0.01 36 0 0" />
    <polygon class="cls-4" points="0 72 36.01 72 0.01 36 0 72" />
</svg>
