<svg xmlns="http://www.w3.org/2000/svg" viewBox="0 0 143.99 72" preserveAspectRatio="none" width="100%" height="100%">
    <defs>
        <style>
            .cls-1 {
                fill: #e32021;
            }

            .cls-2 {
                fill: #1f3c90;
            }

        </style>
    </defs>
            <polygon class="cls-1" points="125.99 18 143.99 0 125.99 9 119.99 12 107.99 18 107.99 18 95.99 24 107.99 36 107.99 36 107.99 36 125.99 18 125.99 18 125.98 18 125.99 18 125.99 18" />
            <polygon class="cls-2" points="54 17.99 54 18 54 18 54 18 53.99 18 47.99 24 54 27 71.99 36 71.99 36 71.99 36 89.99 45 95.99 48 107.99 54 107.99 54 119.99 60 125.99 63 143.99 72 125.99 54 125.99 54 125.99 54 107.99 36 107.99 36.01 107.99 36 107.99 36 95.99 24 89.99 18 89.99 18 89.98 18 71.99 0 54 17.99" />
            <polygon class="cls-2" points="18 54 18 54 18 54 18 54 18 54 0 72 18 63 24 60 36 54 36 54 48 48 36 36 36 36 35.99 36 18 54" />
            <polygon class="cls-1" points="18 18 18 18 18 18 18 18 36 36 36 35.99 36 36 36 36 48 48 54 54 54 54 72 72 89.99 54 89.99 54 89.99 54 89.99 54 90 54 95.99 48 89.99 45 71.99 36 71.99 36 54 27 47.99 24 36 18 35.99 18 24 12 18 9 0 0 18 18" />
</svg>
