<svg xmlns="http://www.w3.org/2000/svg" viewBox="0 0 143.99 72" width="100%" height="100%" preserveAspectRatio="none">
    <polygon class="cls-1" points="125.99 18 143.99 0 125.99 9 119.99 12 107.99 18 107.99 18 95.99 24 107.99 36 107.99 36 107.99 36 125.99 18 125.99 18 125.98 18 125.99 18 125.99 18" />
    <polygon class="cls-1" points="18 18 18 18 18 18 18 18 36 36 36 35.99 36 36 36 36 48 48 54 54 54 54 72 72 89.99 54 89.99 54 89.99 54 89.99 54 90 54 95.99 48 89.99 45 71.99 36 71.99 36 54 27 47.99 24 36 18 35.99 18 24 12 18 9 0 0 18 18" />
    <polygon class="couleurblanc" points="0 0 36 36 0 72 0 0" />
    <polygon class="couleurblanc" points="0 0 71.99 0 47.99 24 0 0" />
    <polygon class="couleurblanc" points="95.99 24 143.99 0 71.99 0 95.99 24" />
    <polygon class="couleurblanc" points="107.99 36 143.99 0 143.99 72 107.99 36" />
    <polygon class="couleurblanc" points="72 72 95.99 48 143.99 72 72 72" />
    <polygon class="couleurblanc" points="48 48 72 72 0 72 48 48" />
</svg>
