<svg xmlns="http://www.w3.org/2000/svg" viewBox="0 0 1280 391">
    <polygon class="cls-1" points="0 0 0 97.75 0 195.5 160.01 195.5 319.97 195.5 320 195.48 160.02 97.75 160.01 97.75 160.01 97.75 0 0" />
    <polygon class="cls-1" points="639.97 97.75 640 195.49 640.01 195.49 640.01 195.5 799.98 195.5 959.97 195.5 959.97 195.49 853.31 130.34 799.98 97.76 799.96 97.75 639.95 0 639.97 97.75" />
    <polygon class="cls-1" points="320.03 0 320.03 97.75 320.03 97.76 320.03 195.47 426.64 130.32 479.96 97.75 479.98 97.73 479.99 97.73 639.95 0 320.03 0" />
    <polygon class="cls-1" points="853.36 260.68 800.03 293.25 800.01 293.27 799.98 293.29 640.05 391 799.98 391 959.97 391 959.97 293.25 959.97 293.24 959.97 195.53 853.36 260.68" />
    <polygon class="cls-1" points="639.99 195.5 480 195.5 320.04 195.5 426.69 260.66 480.01 293.23 480.03 293.24 480.05 293.25 640.05 391 640.02 293.25 640 195.5 639.99 195.5" />
    <polygon class="cls-1" points="319.97 195.5 160.01 293.24 160.01 293.25 160.03 293.26 160.01 293.26 159.97 293.26 0 391 160.01 391 320.02 391 320.02 293.25 319.97 293.25 320.02 293.24 320.02 195.5 319.97 195.5" />
    <polygon class="cls-1" points="959.97 0 959.97 97.75 960.02 97.75 959.97 97.76 959.97 195.49 959.98 195.5 960.02 195.5 1119.99 97.76 1119.99 97.76 1119.98 97.75 1119.99 97.75 1120.01 97.75 1280 0 959.97 0" />
    <polygon class="cls-1" points="1119.99 195.5 960.02 195.5 960 195.51 1119.99 293.25 1280 391 1280 195.5 1119.99 195.5" />
</svg>
