<svg xmlns="http://www.w3.org/2000/svg" viewBox="0 0 143.99 72">
            <polygon class="cls-1" points="126 18 125.99 18 125.99 18 108 36 107.99 36 125.99 54 125.99 54 143.99 72 143.99 54 143.99 36 143.99 18 143.99 0 126 18" />
            <polygon class="cls-1" points="54 17.99 54 18 54 18 54 18 53.99 18 47.99 24 36 35.99 36 36 48 48 54 54 54 54 72 72 89.99 54.01 89.99 54 89.99 54 72 36 89.99 18 89.99 18 71.99 0 54 17.99" />
            <polygon class="cls-1" points="0 36 0 72 18 54 0 36" />
            <polygon class="cls-1" points="0 0 0 36 18 18 0 0" />
            <polygon class="cls-2" points="0 72 36 72 18 54 0 72" />
            <polygon class="cls-2" points="72 72 36 72 54 54 72 72" />
            <polygon class="cls-2" points="72 72 89.99 54 107.99 72 72 72" />
            <polygon class="cls-2" points="125.99 54 143.99 72 107.99 72 125.99 54" />
            <polygon class="cls-2" points="143.99 0 125.99 18 107.99 0 143.99 0" />
            <polygon class="cls-2" points="71.99 0 89.99 18 107.99 0 71.99 0" />
            <polygon class="cls-2" points="0 0 36 0 18 18 0 0" />
            <polygon class="cls-2" points="53.99 18 71.99 0 36 0 53.99 18" />
</svg>
