<svg xmlns="http://www.w3.org/2000/svg" viewBox="0 0 217.04 101">
    <path class="cls-1" d="M217,101h-4.75l-.2-.1L144.26,68.62,109.92,101h-2.8L72.78,68.62,4.74,101H0L53.56,50.5,0,0H4.74L5,.1,72.78,32.38,107.12,0h2.8l34.34,32.38L212.29,0H217L163.48,50.5ZM109.52,52.08V98.63l32.8-30.93ZM74.71,67.7l32.81,30.93V52.08Zm71.11-.55,65.42,31.14L162,51.87ZM55,51.87,5.79,98.29,71.22,67.15Zm55.82-1.37,33,15.72L160.56,50.5,143.88,34.78Zm-54.36,0L73.15,66.22l33-15.72-33-15.72Zm89.34-16.65L162,49.13,211.24,2.71ZM5.79,2.71,55,49.13l16.2-15.28Zm103.73-.34V48.92l32.8-15.62ZM74.71,33.3l32.81,15.62V2.37Z" />
</svg>
