<svg xmlns="http://www.w3.org/2000/svg" viewBox="0 0 339.89 169.96">
            <polygon class="cls-1" points="339.89 0 297.41 21.25 283.24 28.33 254.92 42.49 254.91 42.49 226.59 56.66 212.43 63.74 169.95 84.98 169.95 84.98 212.43 106.22 226.6 113.31 254.91 127.47 254.92 127.47 283.24 141.63 297.4 148.71 339.89 169.96 297.4 127.47 297.4 127.47 297.4 127.47 297.4 127.47 254.92 84.99 254.91 85 254.91 84.98 254.91 84.98 254.91 84.98 254.93 84.98 297.4 42.49 297.4 42.49 297.4 42.49 297.4 42.49 297.41 42.49 339.89 0" />
            <polygon class="cls-1" points="0 0 42.49 42.49 42.49 42.49 42.49 42.49 42.49 42.49 84.97 84.97 84.98 84.97 84.98 84.98 84.98 84.98 84.98 84.98 84.97 84.98 42.49 127.47 42.49 127.47 42.49 127.47 42.49 127.47 42.48 127.47 0 169.96 42.49 148.72 56.65 141.63 84.97 127.47 84.98 127.47 113.3 113.31 127.46 106.22 169.94 84.98 169.94 84.98 127.46 63.73 113.29 56.65 84.98 42.49 84.97 42.49 56.65 28.33 42.49 21.25 0 0" />
</svg>
