<svg xmlns="http://www.w3.org/2000/svg" viewBox="0 0 144.13 72.25" width="100%" height="100%" preserveAspectRatio="none">

    <polygon class="cls-1" points="54.13 54.13 54.13 54.12 54.13 54.12 72.13 36.13 72.12 36.12 54.13 18.12 54.12 18.12 54.12 18.12 54.12 18.12 36.13 0.13 24.13 12.13 18.13 18.12 18.13 18.13 36.13 36.12 36.13 36.12 36.13 36.12 36.13 36.13 36.12 36.13 18.13 54.12 18.13 54.13 18.13 54.13 24.13 60.13 36.13 72.13 54.13 54.13 54.13 54.13" />
    <polygon class="cls-1" points="90.12 18.13 96.12 24.13 108.12 36.12 108.12 36.13 108.13 36.13 108.13 36.13 108.12 36.13 96.13 48.13 90.13 54.13 90.13 54.13 108.12 72.13 120.12 60.13 126.12 54.13 144.13 36.13 126.13 18.13 126.12 18.12 120.12 12.13 108.12 0.13 90.12 18.12 90.12 18.13" />
    <line class="cls-2" x1="0.13" y1="72.12" x2="0.13" y2="0.13" />

</svg>
