<svg xmlns="http://www.w3.org/2000/svg" viewBox="0 0 143.99 72" width="100%" height="100%" preserveAspectRatio="none">
    <polygon points="53.99 54 53.99 54 53.99 54 53.99 54 48 48 36 36 36 36 35.99 36 36 36 36 35.99 47.99 24 53.99 18 53.99 18 53.99 18 71.99 0 53.99 0 36 0 24 12 18 18 18 18 18 18 0 36 18 54 18 54 18 54 18 54 24 60 36 72 54 72 72 72 54 54 53.99 54" />
    <polygon points="89.99 18 89.99 18 71.99 36 71.99 36 71.99 36 71.99 36 89.99 54 89.99 54 90 54 89.99 54 107.99 72 119.99 60 125.99 54 125.99 54 125.99 54 143.99 36 125.99 18 125.99 18 119.99 12 107.99 0 89.99 18 89.99 18" />

</svg>
