<svg version="1.0" id="Calque_1" xmlns="http://www.w3.org/2000/svg" xmlns:xlink="http://www.w3.org/1999/xlink" x="0px" y="0px"
	 width="100%" height="100%" viewBox="0 0 113.39 56.69">
<g>
	<polygon fill="#FAF418" points="56.633,28.345 56.635,42.518 56.636,56.69 70.791,56.69 84.945,56.69 99.105,56.69 113.264,56.69 
		99.105,42.518 99.105,42.518 84.949,28.347 84.945,28.349 84.945,28.345 75.507,18.897 70.789,14.175 70.788,14.174 70.785,14.171 
		56.627,0 56.629,14.171 	"/>
	<polygon fill="#FAF418" points="42.476,42.518 42.476,42.518 42.476,42.518 42.476,42.516 37.757,37.794 28.318,28.345 
		28.313,28.345 28.316,28.342 14.159,14.172 14.159,14.172 0,0 0,14.172 0,28.345 0,42.518 0,56.69 14.158,56.69 28.318,56.69 
		42.476,56.69 56.636,56.69 42.477,42.518 	"/>
</g>
</svg>
