<svg xmlns="http://www.w3.org/2000/svg" viewBox="0 0 144 72"><defs><style>  .cls-1{fill:#1f3c90;}</style></defs><title>  Fichier 3</title><g data-name="Calque 2"><g data-name="Calque 1"><polygon class="cls-1" points="108 18 108 18 108 18 96 24 90 27 72 36 90 45 96 48 108 54 108 54 108 54 108 72 120 60 126 54 126 54 144 36 126 18 126 18 126 18 126 18 120 12 108 0 108 18"/><path class="cls-1" d="M36 0 24 12l-6 6h0L0 36 18 54h0l6 6L36 72V54h0l12-6 6-3 18-9L54 27l-6-3L36 18h0Zm0 36h0Z"/></g></g></svg>